<svg width="157" height="15" viewBox="0 0 157 15" fill="none" xmlns="http://www.w3.org/2000/svg">
<path d="M58.5318 11.8444C62.9567 11.1945 66.6263 10.0981 71.0421 8.98552C72.8706 8.52194 74.8245 8.04204 77.0246 7.56677C79.3343 7.06671 81.0713 6.73089 82.614 6.4808C85.7705 5.98224 88.0486 5.70251 92.9814 4.8789C93.5125 4.80104 93.9831 4.70086 94.7305 4.65574C94.8017 4.65483 94.8632 4.65197 94.9935 4.66564C95.0618 4.67803 95.1218 4.66796 95.3478 4.76053C95.4365 4.80926 95.694 4.89587 95.8834 5.30412C95.978 5.50916 95.9754 5.79018 95.9428 5.91601C95.9126 6.06198 95.854 6.17668 95.8161 6.23984C95.6629 6.47557 95.5954 6.50072 95.5403 6.55296C95.4858 6.59681 95.4476 6.62284 95.4116 6.64698C95.3428 6.6925 95.2914 6.72233 95.2393 6.75197C95.0456 6.86034 94.8899 6.93475 94.7287 7.01304C92.5013 8.11488 89.928 9.13401 88.3588 10.2258C88.3882 10.1993 88.4305 10.1587 88.4805 10.0866C88.541 9.99436 88.6272 9.85169 88.637 9.5949C88.6453 9.33133 88.5264 9.10592 88.4359 8.99823C88.3302 8.87369 88.2888 8.85543 88.2401 8.82101C88.0903 8.73625 88.1301 8.7724 88.1514 8.7732C88.2144 8.79052 88.3428 8.81125 88.4679 8.82521C88.7235 8.85405 89.0069 8.86931 89.2891 8.87875C89.8564 8.89689 90.4281 8.89209 90.99 8.8783C92.1122 8.8495 93.1922 8.7829 94.2034 8.69695C96.7414 8.45721 98.9016 7.98467 100.337 7.62532C101.356 7.3628 102.139 7.19779 102.845 7.0769C104.76 6.74953 106.093 6.70787 110.064 5.67179C110.549 5.54772 111.019 5.43134 111.476 5.32331C114.066 4.71571 116.217 4.35189 118.392 4.1189C119.552 4.05232 120.484 3.75652 122.092 4.19134C122.305 4.29236 122.509 4.39207 122.74 4.64925C122.976 4.88877 123.089 5.39183 122.985 5.70015C122.79 6.3132 122.459 6.55691 122.166 6.83643C121.297 7.65006 119.584 8.46928 118.457 9.58015C118.36 9.72316 118.359 9.87144 118.391 9.90996C118.29 9.84089 118.452 9.93717 118.63 9.9451C118.813 9.9659 119.01 9.97254 119.216 9.97464C119.627 9.97788 120.054 9.96164 120.494 9.93909C121.363 9.89345 122.266 9.82119 123.184 9.73954C128.685 9.23256 134.584 8.47174 137.561 7.96675C139.128 7.69896 140.769 7.47196 142.394 7.27146C146.358 6.78279 150.241 6.44397 152.866 6.04862C153.165 6.00369 153.447 5.96091 153.712 5.92004C154.473 5.80068 155.102 5.7056 155.599 5.57875C155.88 5.50122 156.026 5.48038 156.037 5.51807C156.037 5.51809 156.037 5.51811 156.037 5.51814C156.05 5.55715 155.877 5.6887 155.501 5.80789C154.994 5.96209 154.414 6.08853 153.77 6.22795C152.12 6.58079 150.044 6.9808 147.722 7.44197C145.473 7.88661 143.965 8.11498 142.532 8.30153C140.121 8.61118 137.931 8.80438 132.79 9.53596C129.23 10.038 126.288 10.4847 123.294 10.8585C122.438 10.9633 121.591 11.0604 120.705 11.1368C120.264 11.174 119.816 11.207 119.342 11.2207C119.105 11.2267 118.864 11.2296 118.591 11.2116C118.452 11.201 118.31 11.189 118.12 11.145C118.026 11.1217 117.914 11.0911 117.773 11.0194C117.636 10.9546 117.443 10.7978 117.346 10.6513C116.908 10.0198 117.086 9.31993 117.347 8.89838C118.336 7.67944 119.182 7.3735 120.098 6.67436C120.543 6.35827 121.002 6.02381 121.344 5.68166C121.512 5.53028 121.626 5.29168 121.595 5.39035C121.579 5.45201 121.655 5.61309 121.671 5.60771C121.685 5.6141 121.628 5.56491 121.532 5.52266C121.524 5.51426 121.426 5.48571 121.322 5.47149C120.467 5.37574 119.446 5.50173 118.575 5.60198C115.964 5.93379 113.916 6.40769 111.829 6.94423C109.411 7.56883 106.915 8.34299 103.287 9.12012C101.347 9.52516 99.0982 9.98393 96.3223 10.3177C95.6506 10.3954 95.0037 10.4593 94.3739 10.5015C92.9982 10.5914 91.7532 10.6449 90.5981 10.6638C90.0226 10.6724 89.4645 10.673 88.9183 10.6511C88.6417 10.6392 88.3737 10.6239 88.0774 10.5854C87.9324 10.5648 87.7801 10.5444 87.5731 10.4801C87.4716 10.4355 87.3501 10.4431 87.0735 10.1806C86.9949 10.0943 86.9156 9.98862 86.8631 9.80817C86.8094 9.63169 86.8326 9.41226 86.8763 9.29344C86.9854 9.00953 87.078 8.95534 87.1619 8.87012C89.7794 7.04253 91.7149 6.3322 93.8405 5.1317C94.0075 5.04207 94.2328 4.91554 94.2531 4.88673C94.2469 4.89032 94.2392 4.88885 94.1735 4.9465C94.144 4.97589 94.083 5.02241 93.9913 5.17656C93.9338 5.28464 93.8588 5.42244 93.8517 5.70018C93.8397 5.99687 94.0137 6.3256 94.1535 6.45669C94.3123 6.61507 94.4024 6.64911 94.4721 6.68517C94.5445 6.71864 94.5938 6.73293 94.6223 6.74135C94.6872 6.75957 94.7199 6.7638 94.7387 6.76715C94.7803 6.77336 94.7805 6.77328 94.7795 6.77494C94.7611 6.7796 94.664 6.7903 94.5759 6.80449C94.1991 6.86354 93.7611 6.95194 93.3151 7.04236C90.7551 7.5762 87.7246 8.22065 83.5572 9.12625C83.4371 9.15272 83.3166 9.17939 83.1972 9.20596C79.5649 10.019 75.6121 11.0063 71.6203 11.7776C65.9045 12.8926 60.193 13.8544 55.1905 14.6127C54.5197 14.7117 53.8736 14.8026 53.2217 14.8809C52.8967 14.9195 52.5701 14.9555 52.2312 14.9817C52.0606 14.9944 51.8883 15.0058 51.6831 15.0074C51.5742 15.0067 51.4753 15.0097 51.2798 14.9848C51.2334 14.9783 51.1659 14.9675 51.0845 14.9461C50.984 14.912 50.8869 14.9126 50.6112 14.7174C50.4926 14.6277 50.2623 14.4116 50.1699 14.0529C50.0774 13.6962 50.1718 13.3954 50.2367 13.2516C50.3824 12.9527 50.47 12.9044 50.5293 12.8374C52.1837 11.0509 54.2266 9.44196 55.8582 8.55147C56.0618 8.4346 56.2701 8.31906 56.4842 8.20449C58.4763 7.16155 60.5802 6.49454 62.764 5.61517C64.9942 4.73375 67.3811 3.76208 69.7996 2.72672C70.0996 2.5961 70.4434 2.44602 70.6479 2.33933C70.6626 2.33278 70.694 2.30921 70.6194 2.35998C70.5869 2.38672 70.58 2.37842 70.4568 2.50541C70.4269 2.53811 70.3917 2.57952 70.3512 2.63905C70.3115 2.69847 70.2049 2.86033 70.1615 3.11007C70.1027 3.32192 70.1825 3.84482 70.4351 4.10453C70.7028 4.38841 70.8021 4.38898 70.9077 4.4425C71.1185 4.51939 71.17 4.51047 71.2242 4.51939C71.2761 4.52433 71.3098 4.52434 71.327 4.5244C71.367 4.52425 71.3861 4.52242 71.3958 4.52172C71.4476 4.51544 71.3461 4.53054 71.2841 4.54461C71.1404 4.5748 70.9741 4.61396 70.8073 4.6535C69.5513 4.95349 68.2574 5.26064 67.0142 5.60708C65.1039 6.19931 62.8485 7.016 60.6636 7.55309C59.5752 7.8361 58.4707 8.10703 57.36 8.36338C53.4019 9.27756 49.1126 10.1479 44.6487 10.9186C37.362 12.162 29.664 13.2541 22.2807 14.0407C21.045 14.166 19.855 14.2901 18.584 14.3544C18.4036 14.3617 18.224 14.3688 18.0015 14.3645C17.9454 14.3631 17.8881 14.3613 17.8071 14.3551C17.73 14.3455 17.6622 14.3534 17.4249 14.2855C17.3489 14.2581 17.288 14.2485 17.1072 14.1342C17.0027 14.0852 16.5425 13.6702 16.5932 13.104C16.6487 12.6145 16.8196 12.4992 16.8799 12.4083C16.9646 12.3133 17.0008 12.2867 17.0457 12.2491C17.191 12.1365 17.2385 12.1176 17.2868 12.0877C19.0031 10.9396 21.1443 9.36262 23.303 8.051C24.8762 7.02911 26.7293 6.40541 28.4335 5.85102C31.6778 4.80957 34.9498 3.90535 37.9647 2.83353C39.1475 2.40804 40.3036 1.99047 41.4257 1.57563C41.9825 1.36959 42.5366 1.1622 43.0702 0.954795C43.3375 0.850698 43.6015 0.746066 43.8565 0.639045C43.9807 0.586864 44.1079 0.531845 44.221 0.478808C44.2748 0.453686 44.3329 0.42475 44.3684 0.405337C44.3866 0.395801 44.4034 0.383726 44.3841 0.399034C44.3702 0.421825 44.3655 0.375075 44.2428 0.582357C44.2124 0.649105 44.1746 0.734863 44.182 0.893607C44.1879 1.07574 44.3109 1.26449 44.4133 1.33881C44.5663 1.45123 44.6242 1.44546 44.6715 1.45895C44.7126 1.45484 44.5184 1.45978 44.3794 1.48631C44.2279 1.51083 44.0644 1.54455 43.9005 1.57958C43.5721 1.65026 43.2374 1.72679 42.9045 1.79616C40.3772 2.36523 38.1145 2.73478 36.3204 3.04888C35.5622 3.17858 34.8581 3.2973 34.1893 3.40968C27.5724 4.50987 25.2359 4.8959 17.9989 6.34867C15.1676 6.91977 11.6509 7.56851 8.13138 8.21611C5.95478 8.62033 3.79597 9.0004 1.75642 9.36228C-0.918362 9.87921 -0.375735 9.55058 2.30016 8.87387C4.4237 8.34769 6.36111 7.94479 8.0017 7.58246C9.37031 7.28116 10.5582 7.01383 11.4659 6.74223C15.4546 5.55619 17.1637 5.07974 22.3485 4.36054C27.5345 3.6439 29.8599 2.66824 32.8642 2.16799C33.2511 2.10358 33.6028 2.04994 33.923 2.00457C35.5219 1.75159 36.9176 1.72818 42.5911 0.417206C42.8921 0.348109 43.2054 0.269632 43.5475 0.187337C43.7193 0.146392 43.897 0.104313 44.0975 0.0656923C44.3145 0.035942 44.4663 -0.0368044 44.9402 0.0228149C45.0059 0.0362006 45.0908 0.0534881 45.216 0.122706C45.2596 0.147431 45.3971 0.229277 45.503 0.389973C45.6132 0.540575 45.6584 0.800381 45.6396 0.926082C45.6123 1.19221 45.4963 1.32815 45.4585 1.38095C45.4193 1.43083 45.3859 1.46422 45.3564 1.49178C45.255 1.58295 45.2086 1.60727 45.1678 1.63484C45.0786 1.69095 45.0184 1.72249 44.9569 1.75511C44.8342 1.81924 44.717 1.87482 44.6055 1.92667C44.3773 2.03231 44.1503 2.13117 43.9187 2.23032C43.4552 2.42834 42.9746 2.62593 42.4687 2.83174C41.4624 3.24074 40.3631 3.67837 39.1681 4.15333C38.96 4.23593 38.7618 4.31465 38.5556 4.3963C35.0209 5.76728 31.8392 6.73423 29.074 7.7223C27.247 8.3732 25.7311 8.96272 24.4516 9.84629C22.133 11.3522 20.4226 12.7323 18.4785 14.0879C18.4606 14.0988 18.4502 14.1059 18.4604 14.0996C18.4763 14.0828 18.4841 14.1073 18.6526 13.9243C18.6948 13.8716 18.7596 13.7996 18.8352 13.6235C18.9019 13.4888 18.9831 13.0907 18.8524 12.7665C18.7447 12.462 18.5164 12.271 18.4383 12.2172C18.3349 12.1422 18.2423 12.1024 18.2065 12.0876C18.0145 12.016 18.0081 12.0319 17.9844 12.0246C17.9357 12.0196 18.0449 12.0248 18.1182 12.021C18.29 12.0154 18.4825 12.0016 18.6773 11.9858C19.0583 11.9544 19.4571 11.9136 19.8331 11.8731C20.5919 11.7909 21.3122 11.7044 22.0062 11.6192C22.6511 11.5397 23.2662 11.4616 23.8526 11.3858C28.2991 10.807 36.4945 9.92516 44.2689 8.65815C46.6428 8.26824 48.9666 7.83427 51.1411 7.36662C53.5902 6.83999 56.699 6.14029 60.0448 5.23696C62.1116 4.70668 64.0384 3.99613 66.3479 3.26636C67.6675 2.89531 68.9582 2.58864 70.2478 2.28045C70.422 2.23928 70.5931 2.19854 70.7887 2.15743C70.8967 2.13669 70.9643 2.11635 71.1859 2.09282C71.2152 2.09032 71.2556 2.08707 71.3144 2.0865C71.3417 2.08641 71.379 2.08623 71.4397 2.09105C71.5072 2.1 71.5391 2.09091 71.7427 2.15294C71.8478 2.19468 71.9175 2.2016 72.1414 2.37538C72.3792 2.53715 72.6178 3.0495 72.5814 3.34901C72.5702 3.64989 72.4719 3.83718 72.402 3.95583C72.3449 4.0477 72.3132 4.08416 72.2758 4.12819C72.1196 4.29613 72.106 4.28843 72.0477 4.33569C71.897 4.44082 71.8592 4.45429 71.7938 4.49112C71.3846 4.70127 71.0951 4.81932 70.7635 4.96516C68.2585 6.03479 65.852 7.00695 63.6384 7.88107C61.2219 8.83846 59.0357 9.58844 57.6327 10.3767C57.4486 10.4785 57.2759 10.5777 57.1111 10.6758C54.5217 12.2269 53.507 13.4632 52.2655 14.6245C52.3038 14.5679 52.3893 14.5622 52.5528 14.1593C52.6337 13.9655 52.6678 13.4918 52.4733 13.1545C52.2898 12.826 52.1057 12.7255 51.9933 12.6546C51.6091 12.4686 51.6386 12.5381 51.598 12.5209C51.5628 12.5216 51.6189 12.5287 51.6662 12.5306C51.774 12.5353 51.9118 12.5329 52.0502 12.5283C52.3253 12.5191 52.6225 12.5002 52.9147 12.4799C53.5081 12.4375 54.1135 12.3856 54.8164 12.313C55.8116 12.21 56.9817 12.0697 58.5318 11.8444Z" fill="#7B9FF4"/>
</svg>
