<svg width="479" height="80" viewBox="0 0 479 80" fill="none" xmlns="http://www.w3.org/2000/svg">
<path d="M0.476562 69.0942C1.81356 70.7232 4.29257 70.9072 6.63057 71.2032C4.91757 69.6362 3.03356 68.9422 0.476562 69.0942Z" fill="#FFC300"/>
<path d="M6.6729 71.2381L6.7109 71.2171C6.6789 71.2151 6.65591 71.2081 6.62891 71.2031C6.64691 71.2171 6.6579 71.2261 6.6729 71.2381Z" fill="#FFC300"/>
<path d="M477.275 2.31494C476.69 2.34394 476.024 2.37594 475.348 2.40894C475.991 2.45994 476.648 2.46794 477.275 2.31494Z" fill="#FFC300"/>
<path d="M120.546 77.067L121.046 74.398C126.639 74.41 122.513 77.47 127.718 76.858C129.936 73.096 136.286 77.329 138.176 75.336C138.12 75.636 140.646 75.774 140.426 76.955C141.305 74.909 143.054 76.502 144.677 75.993C145.284 75.427 144.283 75.376 143.882 74.752L147.575 74.059C148.972 74.732 149.264 75.943 147.699 76.153C157.217 76.976 203.026 79.329 213.372 78.374C212.115 76.814 208.891 77.837 207.789 75.39C210.57 74.044 211.776 75.898 213.038 74.471C213.927 78.105 218.982 75.384 220.888 79.073L221.756 77.025L223.056 78.293C235.119 76.244 225.835 77.273 236.43 77.833C242.587 77.56 245.618 74.73 248.994 75.805C248.487 75.78 247.183 74.512 248.794 73.999C248.994 75.805 253.08 72.734 253.783 74.562C255.35 74.345 260.389 74.613 258.775 72.135C259.584 73.372 264.069 73.907 261.347 74.958C262.864 75.041 264.322 75.413 265.437 74.875L263.512 74.175C268.656 73.85 271.383 75.778 274.807 73.568L272.947 72.575C276.02 72.439 278.592 72.271 279.708 74.719L276.531 75.449C281.622 75.419 284.697 75.279 288.983 74.008L287.472 73.931C292.963 71.527 321.282 69.686 326.35 66.656L324.119 64.749L328.446 63.178C327.941 63.152 326.189 69.318 325.784 68.697C334.96 68.576 382.684 67.351 391.118 68.654C394.509 69.719 391.659 71.664 391.612 71.964C395.788 71.275 393.455 69.963 396.987 70.141C397.944 70.487 396.751 71.625 396.202 71.893C397.757 71.675 399.178 72.338 399.318 71.453C397.397 70.758 398.274 68.412 397.49 66.882L402.031 67.105L401.794 68.588C402.807 68.637 404.46 64.543 408.906 65.359C416.424 66.03 435.694 65.541 443.261 65.914C443.125 66.803 441.524 67.323 439.918 67.838C440.933 67.888 442.486 67.666 443.408 68.309C441.611 66.73 446.609 67.274 445.192 66.607C450.813 63.002 457.925 66.335 462.869 63.891C463.374 60.631 475.453 7.89799 475.504 4.01999C477.014 4.09499 478.515 4.17 478.972 4.491C478.598 3.578 475.636 3.13302 474.048 3.64902L473.739 5.72601C470.094 6.44301 472.91 4.48901 469.363 4.61801C469.205 2.91701 472.473 2.564 475.348 2.41C472.765 2.204 470.212 0.955995 469.125 2.814C466.707 2.098 469.433 0.737 466.519 0C464.426 0.493 461.655 2.14901 459.279 1.13501L459.327 0.834991C453.539 -0.940009 450.367 3.38599 445.081 1.62799L445.666 1.06201C443.806 0.0710117 440.076 1.37901 436.706 0.31601C437.666 0.66301 438.481 1.896 436.437 2.091C432.559 1.004 429.874 2.06601 427.053 0.730011L424.278 2.38501C410.707 2.01001 356.991 4.12599 343.332 4.30499L343.875 4.04199C323.055 4.76299 280.379 4.36901 258.794 6.50201C255.536 4.84001 250.936 5.19299 247.487 4.70999C249.387 5.40699 248.679 6.56501 247.176 6.48801C236.616 6.21901 246.416 7.61602 235.698 8.23502C223.323 9.67602 164.108 7.55 153.258 6.052C147.269 8.419 140.036 6.52101 134.208 7.99701L134.816 7.43201C128.592 8.29001 93.7613 5.71299 86.5393 6.50299L87.4844 6.858C81.1414 8.294 82.1444 5.659 77.2624 4.785C77.7544 7.503 72.3023 8.98601 70.2443 9.17001L70.3563 8.578C67.2463 9.002 60.1194 11.287 55.0014 11.593L55.2894 10.112C50.9454 11.659 42.9954 10.911 39.9324 11.034C32.9844 10.347 22.3814 7.641 12.9194 9.495L7.16136 5.20001L6.25135 5.61002C6.25135 5.61002 -6.83365 56.534 4.85835 67.545L4.56536 69.022L7.03135 68.859C9.92835 69.621 11.3994 67.921 11.1054 69.396L7.08435 69.17C10.0144 69.632 7.89936 70.393 6.71536 71.218C7.94136 71.375 9.12835 71.567 10.0834 72.032C10.7024 71.469 9.69435 71.413 9.25435 71.086C10.8794 70.582 13.1834 69.217 15.0774 69.921C18.0974 70.095 15.1184 72.32 18.6424 72.521C37.2124 73.875 55.1814 75.787 74.0514 75.644C74.4444 76.262 73.9354 76.235 73.3754 76.505C79.0914 75.924 84.1264 76.209 89.3344 75.597C90.7334 76.273 91.0754 77.19 91.4654 77.808C90.6774 76.57 120.096 76.747 120.546 77.067Z" fill="#FFC300"/>
</svg>

