<svg width="156" height="4" viewBox="0 0 156 4" fill="none" xmlns="http://www.w3.org/2000/svg">
    <path d="M0.0627529 1.88843C0.363766 1.4601 0.870744 1.26021 1.31434 1.16026C1.76587 1.06032 2.20947 1.04604 2.63723 1.05318C3.49275 1.07459 4.30074 1.19596 5.10081 1.31018L6.25734 1.49579C6.45538 1.51721 6.60589 1.53862 6.796 1.54576L7.38219 1.57432C8.15848 1.61001 8.94272 1.61715 9.72696 1.61715C12.8559 1.59574 15.9849 1.23879 19.1694 0.953232C25.5619 0.317872 32.0259 0.296452 38.4185 0.446372C44.8191 0.603422 51.1959 0.917542 57.5488 1.05318C63.894 1.24593 70.2391 0.888982 76.6551 0.767622C78.2553 0.739062 79.8637 0.731922 81.4714 0.753342C83.0875 0.767622 84.6876 0.846152 86.2643 0.874702C89.4411 0.938952 92.6171 0.910402 95.8098 0.853292C99.0018 0.803312 102.179 0.703372 105.395 0.674812C108.603 0.667672 111.803 0.760482 114.987 0.789042C118.18 0.846152 121.325 0.767622 124.533 0.653402C127.725 0.567732 130.933 0.510622 134.149 0.610562C135.766 0.653402 137.357 0.774762 138.926 0.810452C140.511 0.846152 142.102 0.867562 143.703 0.867562H148.551L149.778 0.881842C150.174 0.881842 150.523 0.881842 150.856 0.831872C151.521 0.739062 152.147 0.532032 152.757 0.203642C153.509 -0.203274 154.484 0.0180331 154.935 0.703372C155.387 1.38157 155.141 2.25966 154.381 2.66658C154.183 2.77366 153.969 2.83791 153.755 2.85933L153.66 2.86647C152.749 2.95927 151.79 3.01638 150.856 2.91644C150.389 2.86647 149.945 2.79508 149.549 2.71655C149.16 2.63802 148.78 2.57377 148.392 2.51666C146.848 2.27393 145.263 2.18827 143.679 2.14543L138.879 2.05977C137.255 2.02407 135.67 1.89557 134.094 1.85988C130.926 1.75993 127.749 1.8099 124.565 1.89557C121.388 2.00266 118.156 2.08118 114.964 2.01693C111.763 1.9741 108.579 1.90271 105.402 1.94554C102.234 2.00266 99.0336 2.13116 95.8416 2.20968C92.6489 2.29535 89.4411 2.35246 86.2325 2.31677C84.6164 2.30249 83.0322 2.23824 81.4555 2.24538C79.8713 2.24538 78.2871 2.2668 76.6953 2.30963C70.3499 2.48096 63.9336 2.9093 57.5092 2.78794C51.1008 2.71655 44.724 2.38102 38.363 2.25252C31.9942 2.1026 25.6649 2.18113 19.3516 2.75224C16.1829 3.01638 12.951 3.26625 9.68736 3.12347C8.87146 3.09491 8.05549 3.03066 7.24755 2.93786L6.63757 2.86647C6.43161 2.83791 6.18605 2.79508 5.98801 2.75224C5.5761 2.66658 5.19587 2.56663 4.81564 2.47382C4.05517 2.28821 3.30263 2.10974 2.55801 2.02407C1.83716 1.94554 1.04502 1.94554 0.712313 2.29535L0.69647 2.31677C0.553882 2.45955 0.300397 2.48096 0.134046 2.34532C-0.0164618 2.2311 -0.0402261 2.03121 0.0627529 1.88843Z" fill="black"/>
</svg>
